<?xml version="1.0" standalone="no"?>
<!DOCTYPE svg PUBLIC "-//W3C//DTD SVG 20010904//EN"
 "http://www.w3.org/TR/2001/REC-SVG-20010904/DTD/svg10.dtd">
<svg version="1.0" xmlns="http://www.w3.org/2000/svg"
 width="1536.000000pt" height="1024.000000pt" viewBox="0 0 1536.000000 1024.000000"
 preserveAspectRatio="xMidYMid meet">

<g transform="translate(0.000000,1024.000000) scale(0.100000,-0.100000)"
fill="#000000" stroke="none">
<path d="M4515 7829 c-11 -7 -62 -46 -114 -88 -51 -42 -136 -110 -189 -151
-111 -88 -132 -112 -139 -168 -10 -75 17 -110 328 -425 159 -160 289 -293 289
-294 0 -1 -74 -65 -164 -142 -100 -86 -168 -152 -176 -171 -32 -76 18 -166 97
-177 53 -7 90 12 183 93 41 37 135 118 208 181 72 63 139 127 147 143 18 34
20 92 4 123 -6 12 -151 163 -322 334 -189 189 -308 316 -302 321 6 5 61 48
123 96 136 106 179 148 187 187 8 37 -9 90 -39 118 -28 26 -92 37 -121 20z
m142 -131 c-3 -7 -5 -2 -5 12 0 14 2 19 5 13 2 -7 2 -19 0 -25z"/>
<path d="M3739 7397 c-62 -39 -246 -186 -277 -221 -20 -23 -33 -51 -37 -79
-12 -78 15 -118 210 -316 l176 -178 -39 -34 c-21 -19 -85 -72 -140 -118 -85
-70 -104 -90 -113 -124 -33 -125 104 -200 214 -116 122 93 337 282 356 312 22
36 28 110 11 137 -5 8 -97 103 -206 211 l-196 196 63 45 c99 71 140 118 146
168 7 52 -14 98 -57 123 -38 23 -68 21 -111 -6z"/>
<path d="M9490 6540 c-304 -83 -490 -328 -490 -648 0 -306 165 -538 455 -639
73 -25 92 -27 225 -27 124 0 154 3 207 22 34 12 68 22 75 22 7 0 40 -36 73
-80 33 -44 63 -80 66 -80 3 0 33 18 65 41 33 22 76 52 97 66 43 30 47 19 -50
129 -35 40 -63 75 -63 78 0 4 20 31 44 60 95 117 140 252 139 416 -2 200 -56
333 -188 465 -133 134 -250 183 -455 191 -104 4 -137 1 -200 -16z m274 -246
c80 -20 131 -51 190 -113 116 -125 144 -312 71 -477 -13 -30 -28 -54 -32 -54
-4 1 -25 28 -45 60 l-37 60 -132 0 c-72 0 -129 -3 -127 -7 2 -5 40 -63 86
-130 45 -67 82 -127 82 -132 0 -32 -200 -44 -277 -17 -151 53 -248 173 -273
335 -48 306 204 549 494 475z"/>
<path d="M7450 5900 l0 -641 118 3 117 3 2 465 c2 256 3 470 3 475 1 6 20 -44
44 -110 121 -334 288 -793 296 -813 10 -22 14 -23 111 -20 l101 3 100 280 c54
154 126 357 159 450 33 94 64 174 70 179 5 6 9 -163 9 -452 l0 -462 120 0 120
0 0 640 0 640 -177 -2 -178 -3 -24 -65 c-89 -246 -210 -586 -249 -702 -26 -76
-50 -138 -53 -138 -3 0 -18 37 -34 83 -30 87 -237 660 -277 764 l-23 63 -177
0 -178 0 0 -640z m193 613 c-7 -2 -21 -2 -30 0 -10 3 -4 5 12 5 17 0 24 -2 18
-5z m1080 0 c-7 -2 -21 -2 -30 0 -10 3 -4 5 12 5 17 0 24 -2 18 -5z m44 1 c-3
-3 -12 -4 -19 -1 -8 3 -5 6 6 6 11 1 17 -2 13 -5z"/>
<path d="M10370 6420 l0 -120 180 0 180 0 0 -520 0 -520 130 0 130 0 0 520 0
520 185 0 185 0 0 120 0 120 -495 0 -495 0 0 -120z"/>
<path d="M11470 6420 l0 -121 175 3 175 3 0 -522 0 -523 130 0 130 0 0 520 0
520 178 2 177 3 3 118 3 117 -486 0 -485 0 0 -120z"/>
<path d="M3165 6009 c-132 -19 -298 -131 -367 -250 -59 -101 -68 -151 -84
-458 -8 -157 -17 -328 -20 -378 l-6 -93 -197 0 c-117 0 -211 -4 -229 -11 -37
-13 -72 -64 -72 -106 0 -69 36 -139 348 -668 267 -454 420 -706 444 -732 51
-55 27 -54 998 -51 l895 3 95 46 c243 118 519 402 662 681 l34 67 215 4 c118
3 241 10 274 16 78 16 246 98 311 153 189 160 286 367 286 608 0 205 -74 382
-220 526 -67 66 -114 100 -198 142 -113 57 -157 64 -420 69 l-241 5 -6 147
c-4 80 -12 162 -17 182 -13 47 -53 86 -99 99 -45 12 -2298 12 -2386 -1z m2245
-256 c0 -25 22 -665 36 -1044 18 -509 18 -514 -57 -645 -76 -132 -235 -317
-363 -420 -108 -88 -167 -115 -275 -124 -133 -12 -1151 -11 -1151 1 0 9 260
468 280 494 17 22 294 511 326 575 57 114 45 201 -33 231 -14 5 -277 9 -630 9
l-606 0 7 123 c27 498 38 615 67 674 24 50 86 101 147 120 42 13 2252 19 2252
6z m722 -444 c236 -50 398 -300 359 -554 -24 -150 -133 -309 -264 -384 -77
-44 -159 -59 -349 -64 l-168 -4 0 52 c0 28 -5 166 -11 306 -5 140 -13 345 -17
457 l-7 202 202 0 c111 0 226 -5 255 -11z m-2212 -727 c0 -3 -186 -322 -483
-827 l-135 -230 -83 -3 -84 -2 -33 62 c-19 35 -72 128 -119 208 -47 80 -111
188 -141 240 -31 52 -116 196 -190 319 -73 123 -129 227 -124 230 10 6 1392 9
1392 3z"/>
<path d="M7450 4345 l0 -485 86 0 86 0 -4 345 c-2 189 0 341 3 337 3 -4 20
-47 38 -97 17 -49 73 -200 124 -335 l93 -245 80 -3 80 -3 123 333 c67 183 127
342 131 353 5 11 9 -130 9 -332 l1 -353 90 0 90 0 0 484 0 484 -131 -1 -131
-2 -93 -260 c-147 -411 -163 -451 -169 -435 -3 8 -28 76 -55 150 -111 308
-194 526 -203 538 -7 8 -46 12 -129 12 l-119 0 0 -485z"/>
<path d="M10880 4345 l0 -485 90 0 90 0 0 221 c0 205 2 224 20 254 11 18 35
39 53 46 44 19 119 16 152 -5 49 -32 55 -65 55 -301 l0 -215 91 0 91 0 -5 253
c-4 289 -8 309 -78 378 -38 39 -56 49 -105 59 -32 7 -80 10 -107 6 -54 -6
-128 -44 -152 -78 -14 -21 -15 -7 -15 165 l0 187 -90 0 -90 0 0 -485z"/>
<path d="M11695 4806 c-63 -63 -34 -156 54 -171 107 -18 175 93 102 166 -25
24 -37 29 -81 29 -41 0 -56 -5 -75 -24z"/>
<path d="M13485 4733 c-22 -2 -59 -6 -82 -9 l-43 -5 0 -90 0 -89 -50 0 -50 0
0 -75 0 -75 49 0 49 0 4 -197 c3 -182 5 -202 26 -245 36 -73 76 -93 187 -93
50 0 102 3 118 8 25 7 27 11 23 45 -3 20 -5 51 -5 67 l-1 30 -66 0 c-101 0
-104 6 -104 216 l0 169 91 0 90 0 -3 75 -3 75 -87 0 -88 0 -1 58 c-1 31 -1 76
1 100 1 23 -2 41 -7 40 -4 -1 -26 -3 -48 -5z"/>
<path d="M12837 4723 c-4 -3 -7 -46 -7 -95 l0 -88 -52 0 -53 0 3 -76 4 -76 48
4 48 3 4 -200 c4 -222 14 -267 69 -306 42 -30 122 -43 212 -35 l78 8 -3 71 -3
71 -62 -3 c-55 -2 -65 1 -88 23 -25 25 -25 27 -25 196 l0 170 85 0 85 0 0 75
0 75 -85 0 -85 0 0 95 0 95 -83 0 c-46 0 -87 -3 -90 -7z"/>
<path d="M8830 4547 c-116 -27 -169 -80 -186 -186 l-7 -41 52 -2 c119 -4 112
-6 125 32 20 64 115 87 198 49 30 -13 58 -63 58 -103 0 -23 -3 -25 -28 -20
-15 3 -78 1 -140 -5 -206 -19 -282 -77 -282 -216 0 -131 85 -205 234 -205 81
0 126 14 181 55 25 19 47 35 49 35 3 0 6 -17 8 -37 l3 -38 84 -3 c73 -2 83 -1
77 13 -3 9 -8 122 -12 253 -6 217 -8 241 -29 288 -24 54 -56 82 -129 115 -58
25 -182 33 -256 16z m238 -406 c14 -98 -63 -167 -175 -158 -67 5 -93 27 -93
78 0 49 41 85 108 94 26 3 54 8 62 10 8 2 33 2 55 2 34 -2 41 -6 43 -26z"/>
<path d="M9612 4550 c-59 -12 -137 -57 -174 -99 -17 -19 -43 -60 -57 -91 -23
-48 -26 -68 -26 -160 0 -92 3 -112 26 -160 32 -69 90 -129 155 -160 43 -21 63
-24 164 -25 106 0 119 2 165 27 79 41 135 107 159 186 7 22 6 22 -79 22 -85 0
-87 0 -118 -34 -59 -62 -166 -71 -228 -19 -92 78 -93 248 0 325 66 56 186 40
227 -32 18 -30 21 -32 63 -26 24 3 63 6 87 6 55 0 57 15 12 90 -38 62 -110
122 -171 140 -55 16 -151 21 -205 10z"/>
<path d="M10363 4550 c-159 -34 -263 -174 -263 -355 0 -208 134 -343 341 -345
41 0 98 7 125 15 93 29 179 113 199 198 l7 27 -85 0 -85 0 -38 -39 c-45 -44
-94 -57 -153 -41 -86 23 -131 89 -131 192 1 113 51 182 142 194 56 8 107 -13
144 -59 l28 -35 75 5 c106 7 103 4 84 60 -22 63 -104 145 -170 167 -58 21
-163 28 -220 16z"/>
<path d="M12225 4554 c-73 -19 -117 -39 -145 -65 -36 -35 -69 -102 -70 -140 0
-26 2 -27 75 -34 41 -3 78 -4 83 -1 5 3 12 19 15 35 9 44 49 66 122 66 40 0
69 -6 86 -18 31 -20 52 -65 47 -97 -3 -20 -9 -22 -113 -26 -143 -5 -204 -18
-254 -54 -65 -47 -76 -72 -76 -166 0 -77 2 -85 31 -120 51 -63 93 -79 209 -79
107 0 133 9 187 59 15 14 29 26 32 26 2 0 7 -18 11 -40 l7 -40 77 0 76 0 -2
108 c-2 59 -4 170 -6 247 -2 126 -5 146 -29 196 -43 94 -121 137 -263 144 -44
2 -89 2 -100 -1z m216 -434 c-4 -63 -24 -95 -74 -119 -113 -55 -218 6 -181
104 14 35 118 65 219 61 l40 -1 -4 -45z"/>
<path d="M14044 4547 c-97 -25 -175 -93 -223 -196 -23 -49 -26 -69 -26 -156 0
-90 3 -106 30 -158 34 -68 97 -130 163 -160 39 -18 66 -22 157 -22 100 0 115
2 166 28 138 67 211 212 188 371 -17 125 -76 209 -182 261 -85 41 -188 53
-273 32z m183 -166 c124 -57 140 -272 25 -348 -66 -43 -156 -40 -218 9 -81 65
-86 239 -7 310 53 48 132 59 200 29z"/>
<path d="M11680 4200 l0 -340 90 0 90 0 0 340 0 340 -90 0 -90 0 0 -340z"/>
</g>
</svg>
